- 
http://www.Speed.Cd      fast  and The Hottest Private Tracker on the net

   signup is open now

Please Seed back to make the speed Faster!!!

------------------nfo--------------------------
-11-11-11 2011 R2 READNFO XviD AC3 - MiSTERE
 
http://www.imdb.com/title/tt1712159/

SOURCE: 11-11-11 (2011)(DD5.1)(11-11-Bios) RENTAL ISO PAL

Video
ID                               : 0
Format                           : MPEG-4 Visual
Format profile                   : Advanced Simple@L5
Format settings, BVOP            : 2
Format settings, QPel            : No
Format settings, GMC             : No warppoints
Format settings, Matrix          : Default (H.263)
Muxing mode                      : Packed bitstream
Codec ID                         : XVID
Codec ID/Hint                    : XviD
Duration                         : 1h 32mn
Bit rate                         : 1 945 Kbps
Width                            : 720 pixels
Height                           : 304 pixels
Display aspect ratio             : 2.35:1
Frame rate                       : 25.000 fps
Color space                      : YUV
Chroma subsampling               : 4:2:0
Bit depth                        : 8 bits
Scan type                        : Progressive
Compression mode                 : Lossy
Bits/(Pixel*Frame)               : 0.355
Stream size                      : 1.26 GiB (81%)
Writing library                  : XviD 64

Audio
ID                               : 1
Format                           : AC-3
Format/Info                      : Audio Coding 3
Mode extension                   : CM (complete main)
Codec ID                         : 2000
Duration                         : 1h 32mn
Bit rate mode                    : Constant
Bit rate                         : 448 Kbps
Channel(s)                       : 6 channels
Channel positions                : Front: L C R, Side: L R, LFE
Sampling rate                    : 48.0 KHz
Bit depth                        : 16 bits
Compression mode                 : Lossy
Stream size                      : 298 MiB (19%)
Alignment                        : Aligned on interleaves
Interleave, duration             : 40 ms (1.00 video frame)



Cropped Resized and tweaked RGB
Colors on source were wacked so 
alot went into sorting them
check screenshotcomparison 
Tagged R2 because thats what it is
Source was PAL DVDR from the Netherlands
Hence R2, NOT DVDRIP
 
http://screenshotcomparison.com/comparison/92268

[IMG]http://i.imgur.com/bYOOL.png[/IMG]
[IMG]http://i.imgur.com/2suv0.png[/IMG]
[IMG]http://i.imgur.com/IdHE0.png[/IMG]
[IMG]http://i.imgur.com/CnIWW.png[/IMG]
[IMG]http://i.imgur.com/YlnG2.png[/IMG]
[IMG]http://i.imgur.com/SOGeh.png[/IMG]
[IMG]http://i.imgur.com/VLAwS.png[/IMG]